# xmcd CD database file
# Copyright (C) 1997 Ti Kan
# 
# Track frame offsets:
#     150
#     15967
#     29697
#     44435
#     66102
#     83522
#     103287
#     122087
#     135645
#     156300
#     175125
#     189630
#     206620
#     218887
# 
# Disc length: 3151 seconds
# 
# Revision: 1
# Processed by: cddbd v1.4b41PL1 Copyright (c) Steve Scherf et al.
# Submitted via: DiscPlay 4.0.4
# 
DISCID=c40c4d0e
DTITLE=joe cocker - orgnic
DYEAR=1900
DGENRE=
TTITLE0=Into the Mystic
TTITLE1=Anybody seen my girl
TTITLE2=Delta Lady
TTITLE3=Heart full of Rain
TTITLE4=don't let me be Misunderstood
TTITLE5=Many Rivers to Cross
TTITLE6=High Lonesome Blue
TTITLE7=Sail Away
TTITLE8=You and I
TTITLE9=Darling Be Home Soon
TTITLE10=dignaty
TTITLE11=You Can Leave Your Hat On
TTITLE12=You Ar So Beautiful
TTITLE13=Can't find my way Home
EXTD=
EXTT0=
EXTT1=
EXTT2=
EXTT3=
EXTT4=
EXTT5=
EXTT6=
EXTT7=
EXTT8=
EXTT9=
EXTT10=
EXTT11=
EXTT12=
EXTT13=
PLAYORDER=
